<?xml version="1.0" encoding="UTF-8"?>
<svg id="Layer_1" data-name="Layer 1" xmlns="http://www.w3.org/2000/svg" viewBox="0 0 501.1 501.1">
  <defs>
    <style>
      .cls-1 {
        fill: #be2326;
      }
    </style>
  </defs>
  <path class="cls-1" d="M501.1,250.55c0,138.38-112.18,250.55-250.55,250.55S0,388.92,0,250.55,112.18,0,250.55,0s250.55,112.18,250.55,250.55ZM480.3,250.53c0-126.89-102.86-229.75-229.75-229.75S20.8,123.64,20.8,250.53s102.86,229.75,229.75,229.75,229.75-102.86,229.75-229.75h0Z"/>
  <path class="cls-1" d="M267.76,458.35c-4.59,5.27-9.59,13.28-16.67,10.03-2.21-1.01-4.04-2.64-5.53-4.61-6.7-8.88-14.34-16.42-23.39-22.9l-16.19-11.58c-4.14-2.96-7.71-6.26-10.57-10.44-5.91-8.65-1.42-17.74,5.27-24.2,2.89-2.79,6.02-4.71,9.62-7.16-30.17-5.88-63-16.55-84.73-38.99-20.65-21.33-24.69-48.94-17.36-77.12,3.78-14.54,9.29-28.27,16.53-41.39l9.94-18.01,13.61-24.26c4.77-8.51,8.66-17.03,12.12-26.17,6.42-16.94,10.99-37.55,6.16-55.29-1.54-5.64-3.99-10.85-8.25-15.02,1.09,12.67-8.08,23.11-20.02,24.09s-23.02-8.49-23.49-21.04c-.25-6.57,2.17-12.33,7.46-16.41,17.7-13.64,43.47-19.04,59.73.3,2.77,3.31,4.77,6.77,6.7,10.64,2.83,6.17,4.66,12.48,6.01,19.45l27.4.06-.03-23.2c-4.08.11-6.97-2.67-7.07-6.23s2.7-6.54,6.45-6.52l14.77.07c3.67.02,6.13,3.55,5.86,6.85-.28,3.47-3.33,5.94-7.1,5.83l-.04,23.14,12.02.03.03-42.19c-1.76-.35-3.48-.03-5.32-.17-3.58-.27-6.1-3.13-6.08-6.43.02-3.49,2.76-6.42,6.52-6.42h22.71c3.7,0,6.31,3.06,6.35,6.44s-2.72,6.27-6.34,6.43c-1.71.08-3.26-.17-5.03.12v42.15l10.99.03v-22.12c-3.78-.01-6.66-2.29-7.09-5.71s1.98-7.1,5.74-7.12l14.77-.09c3.78-.02,6.59,2.96,6.58,6.51s-3.07,6.41-7.12,6.41v22.18l26.45-.03c1.34-7.6,3.33-14.49,6.51-21.18,6.1-12.55,15.92-20.4,30.21-21.16,12.05-.64,27.57,2.74,36.27,11.86,5.04,5.28,7.56,12.37,6.49,19.54-1.69,11.25-11.22,18.67-22.53,18.05-12.5-.7-21.75-11.33-20.67-24.15-15.7,15.49-10.83,43.39-4.88,62.22,4.97,15.73,11.94,30.3,20.49,44.4,17.82,29.39,37.52,67.28,37.5,102.23-.02,23.94-12.41,42.21-30.66,56.42-19.67,15.31-45.56,25.34-69.86,30.37-.48.1-.53.28-.34.49.14.15,5.9,3.83,7.76,5.42,7.81,6.66,13.97,16.91,6.93,26.58-2.95,4.05-6.57,7.35-10.7,10.28l-13.84,9.81c-7.8,5.53-14.79,11.65-21.07,18.87h.02ZM145.61,93.55c0-5-4.05-9.04-9.04-9.04s-9.04,4.05-9.04,9.04,4.05,9.04,9.04,9.04,9.04-4.05,9.04-9.04ZM378.29,93.55c0-5-4.05-9.05-9.05-9.05s-9.05,4.05-9.05,9.05,4.05,9.05,9.05,9.05,9.05-4.05,9.05-9.05ZM186.78,324.25c11.6,6.81,27.76,7.75,36.61-2.74,4.49-5.33,4.69-12.46.6-17.97-5.59-7.54-12.74-5.99-11.33-13.63.38-2.06,1.96-4.26,4.4-4.86l5.1-1.25V121.27l-25.8-.07c.87,11.62.1,22.92-2.41,34.36-1.99,9.07-4.34,17.54-7.32,26.34l-12.58,37.13c-1.97,5.81-3.99,11.21-5.69,17.09-.2.71,0,1.53.4,2.01,1.55,1.9,11.78-3.26,20.33-.35,1.22.42,2.22,1.29,2.49,2.11.4,1.23.19,2.77-.61,3.68l-7.24,8.31c-15.13,17.37-25.66,55.51,3.06,72.36h0ZM247.01,121.22h-12.04v161.59h12.04V121.22ZM270.85,121.22h-11.02v161.64h11.02V121.22h0ZM315.42,244.4c-.94-1.09-1.05-2.51-.69-3.58,1.24-3.7,10.22-3.8,13.7-3.52,2.38.19,4.54.8,6.88.76.47-1.34.18-2.68-.12-4.03-1.45-6.48-3.51-12.46-5.65-18.77l-11.17-33.04c-2.81-8.3-5.18-16.26-7.18-24.8-3.01-11.9-3.92-23.8-2.66-36.17l-24.87-.02v162.74c3.03,1.24,6.89.82,8.22,5.35.81,2.74.07,5.72-2.47,7.18-3.13,1.8-5.96,3.66-8.31,6.44-4.1,4.86-4.57,11.58-1.04,16.97,5.67,8.66,18.08,11.06,27.61,8.7,16.77-4.16,28.29-18.79,28.84-36.1.29-9.19-2.04-17.78-6-26.06s-9.18-15.13-15.11-22.05h.02ZM257.62,431.11c10.06-10.98,15.97-11.65,21.45-16.97,2.72-2.64,2.75-6.08.3-9.02-3.67-4.39-10.28-5.55-11.78-10.03-.52-1.57-1.41-2.38-3.17-2.39l-19.33-.08c-2,0-3,1.15-3.73,2.8-2.34,5.28-9.11,5.22-12.59,11.2-1.34,2.31-1.01,4.83.72,6.81,4.62,5.29,12,6.69,21.83,17.66,1.63,1.82,4.41,2.08,6.3.02h0Z"/>
</svg>