<?xml version="1.0" encoding="UTF-8"?>
<svg id="Layer_1" data-name="Layer 1" xmlns="http://www.w3.org/2000/svg" viewBox="0 0 505.1 504.86">
  <defs>
    <style>
      .cls-1 {
        fill: #087c56;
      }

      .cls-2 {
        fill: #fff;
      }

      .cls-3 {
        fill: #127d58;
      }
    </style>
  </defs>
  <path class="cls-1" d="M505.1,252.43c0,139.41-113.07,252.43-252.55,252.43S0,391.84,0,252.43,113.07,0,252.55,0s252.55,113.02,252.55,252.43ZM484.11,252.41c0-127.83-103.67-231.45-231.56-231.45S20.99,124.58,20.99,252.41s103.67,231.45,231.56,231.45,231.56-103.62,231.56-231.45h0Z"/>
  <path class="cls-2" d="M401.78,111.55l6.05-25.08-25.73,7.59,19.67,17.49h.01ZM399.57,120.18l-26.45-23.51c-2.02.53-3.72.82-5.45,1.7l30.21,29c.75-2.38,1.35-4.5,1.7-7.18h0ZM374.39,115.87l-41.88,43.89,5.77,5.5,41.88-43.89-5.77-5.5ZM327.01,165.41c-6.25-5.68-12.19-10.12-18.81-14.34-11.66-7.78-23.6-14.38-36.55-19.9-40.49-17.01-80.66-17.09-121.75-2.03-14.96,5.49-31.18,1.96-42.71-8.97-4.64-4.4-11.95-3.41-15.92,1.05s-3.94,11.61.6,15.88l7.18,6.74c9.08,8.53,21.91,11.15,33.69,6.81,54.09-19.9,104.58-13.52,153.84,15.27,8.53,4.99,16.35,10.36,23.71,17.13l16.72-17.64h0ZM135.04,323.21l2.74-165.89-7.98,2.56-2.71,165.37c3.81-3.31,3.22-1.88,7.95-2.04ZM372.08,405.04c4.77,4.53,11.93,4,16.17-.53,4.05-4.33,4.2-11.55-.31-15.86-11.66-11.14-15.54-27.4-10.66-42.77,11.69-36.74,11.23-74.31-3.12-110.28-6.59-16.64-15.54-32.05-26.08-46.5-4.73-6.55-9.58-12.48-15.34-18.17l-16.66,17.55c5.37,5.47,9.79,11.02,14.19,17.18,9.82,14.25,18.06,29.4,24.16,45.62,14.1,37.49,14.1,75.28,2.11,113.3-3.82,12.12-.65,25.07,8.55,33.81l6.98,6.64h0ZM196.52,313.92l113.93-119.53c-1.63-2.06-3.62-3.76-5.69-5.55l-113.99,119.67c1.47.53,3.06.48,4.13,1.44s.69,2.55,1.62,3.97h0ZM172.57,327.63l10.99-11.78-32.33-3.68-7.33,12.33,28.68,3.13h0ZM182.76,361.55l11.8-7.8-5.18-32.23-11.2,11.66,4.59,28.36h-.01ZM154.49,346.57l11.01-11.79-32.32-3.6-7.32,12.25,28.63,3.14ZM164.69,380.48l11.8-7.78-5.2-32.25-11.17,11.76,4.57,28.27h0ZM132.54,369.7l14.94-15.85-32.39-3.69-9.43,15.7,26.89,3.84h-.01ZM143.23,401.74l15.2-10.12-5.18-32.22-15.16,15.82,5.14,26.51h0ZM182.81,378.42l164.73-10.26,1.98-8.12-164.95,10.37c-.6,4.48,1.62,3.61-1.76,8.01h0ZM131.4,382.31c-.29-1.95-.47-3.27-.94-4.74-1.69-.4-3.13-.66-4.84-.72l-21.43,22.53c-1.58,1.66-1.24,4.23.26,5.57s3.93,1.49,5.55-.21l21.4-22.42h0Z"/>
  <path class="cls-1" d="M372.08,405.04l-6.98-6.64c-9.19-8.75-12.37-21.69-8.55-33.81,11.99-38.02,11.98-75.81-2.11-113.3-6.1-16.21-14.33-31.37-24.16-45.62-4.4-6.16-8.82-11.71-14.19-17.18l16.66-17.55c5.76,5.7,10.61,11.62,15.34,18.17,10.54,14.45,19.48,29.85,26.08,46.5,14.35,35.97,14.81,73.54,3.12,110.28-4.89,15.37-1.01,31.63,10.66,42.77,4.51,4.31,4.37,11.52.31,15.86-4.24,4.53-11.4,5.06-16.17.53h0Z"/>
  <path class="cls-1" d="M327.01,165.41l-16.72,17.64c-7.36-6.77-15.18-12.14-23.71-17.13-49.25-28.79-99.75-35.17-153.84-15.27-11.78,4.33-24.62,1.72-33.69-6.81l-7.18-6.74c-4.54-4.26-4.69-11.29-.6-15.88s11.28-5.45,15.92-1.05c11.53,10.93,27.74,14.46,42.71,8.97,41.09-15.06,81.26-14.99,121.75,2.03,12.95,5.51,24.89,12.12,36.55,19.9,6.62,4.22,12.56,8.66,18.81,14.34Z"/>
  <path class="cls-3" d="M135.04,323.21c-4.72.16-4.14-1.27-7.95,2.04l2.71-165.37,7.98-2.56-2.74,165.89h0Z"/>
  <path class="cls-3" d="M182.81,378.42c3.38-4.4,1.16-3.53,1.76-8.01l164.95-10.37-1.98,8.12-164.73,10.26Z"/>
  <path class="cls-3" d="M196.52,313.92c-.93-1.42-.53-2.99-1.62-3.97s-2.66-.9-4.13-1.44l113.99-119.67c2.07,1.79,4.06,3.49,5.69,5.55l-113.93,119.53h0Z"/>
  <polygon class="cls-3" points="132.54 369.7 105.66 365.85 115.09 350.15 147.48 353.84 132.54 369.7"/>
  <polygon class="cls-3" points="143.23 401.74 138.09 375.23 153.24 359.41 158.43 391.62 143.23 401.74"/>
  <rect class="cls-3" x="326" y="136.58" width="60.67" height="7.97" transform="translate(8.72 301.49) rotate(-46.37)"/>
  <polygon class="cls-3" points="172.57 327.63 143.89 324.5 151.22 312.17 183.55 315.85 172.57 327.63"/>
  <polygon class="cls-3" points="182.76 361.55 178.17 333.18 189.37 321.52 194.56 353.75 182.76 361.55"/>
  <polygon class="cls-3" points="154.49 346.57 125.86 343.44 133.18 331.18 165.5 334.78 154.49 346.57"/>
  <polygon class="cls-3" points="164.69 380.48 160.12 352.2 171.29 340.45 176.49 372.7 164.69 380.48"/>
  <polygon class="cls-3" points="401.78 111.55 382.1 94.06 407.83 86.47 401.78 111.55"/>
  <path class="cls-3" d="M131.4,382.31l-21.4,22.42c-1.62,1.7-4.04,1.57-5.55.21s-1.83-3.91-.26-5.57l21.43-22.53c1.71.06,3.15.33,4.84.72.48,1.47.65,2.79.94,4.74h0Z"/>
  <path class="cls-3" d="M399.57,120.18c-.35,2.68-.95,4.8-1.7,7.18l-30.21-29c1.74-.88,3.43-1.16,5.45-1.7l26.45,23.51h0Z"/>
</svg>