<?xml version="1.0" encoding="UTF-8"?>
<svg id="Layer_1" data-name="Layer 1" xmlns="http://www.w3.org/2000/svg" viewBox="0 0 498.71 498.71">
  <defs>
    <style>
      .cls-1 {
        fill: #eeab21;
      }

      .cls-2 {
        fill: #fffffe;
      }
    </style>
  </defs>
  <path class="cls-1" d="M498.71,249.36c0,137.72-111.64,249.36-249.36,249.36S0,387.07,0,249.36,111.64,0,249.36,0s249.36,111.64,249.36,249.36ZM478.02,249.32c0-126.29-102.38-228.66-228.66-228.66S20.69,123.03,20.69,249.32s102.38,228.66,228.66,228.66,228.66-102.38,228.66-228.66Z"/>
  <g>
    <path class="cls-1" d="M377.86,435.22H121.97c-5.44.01-8.89-4.02-9.18-9.11-.11-1.99.12-3.51.12-5.66v-204.24c0-3.6-.17-16.48-.04-18.7l.94-16.05c1.14-19.52,6.16-38.52,19.12-53.36,23.45-37.76,65.07-61.4,109.69-61.39h14.82c44.49,0,85.44,23.32,109.14,60.68,13.33,14.97,18.56,34.2,19.7,54.09l.92,16.12-.32,97.45c-.17,51.19-30.25,97.51-74.86,122.45l66.57.13c5.04.01,8.3,4.51,8.21,8.99s-3.68,8.6-8.94,8.6ZM250.06,129.06c16.79-19.95,40.77-29.43,66.52-27.52-15.69-9.98-33.24-15.65-51.57-17-10.51-.42-20.29-.41-30.82.04-17.92,1.62-35.22,7.07-50.7,16.93,27.27-1.72,49.05,7.76,66.56,27.55ZM368.51,181.97c.21-4.55-.24-8.35-.72-12.74-.73-6.66-2.75-12.97-6.26-18.69-2.76-4.5-5.54-8.8-9.07-12.64-17.34-18.83-44.47-24.23-67.81-13.67-16.64,7.53-28.98,22.54-33.31,40.28-.23.95-.52,1.42-1.32,1.42-.61,0-1.2-.53-1.41-1.37-3.63-14.43-12.09-26.86-24.35-35.29-24.08-16.55-57.24-13.09-76.8,8.93-3.91,4.4-6.41,10.1-9.44,15.26-7.95,13.52-7.73,28.48-4.57,43.44,1.54,7.28,4.87,13.57,10.2,18.88,9.54,9.5,21.42,16.64,34.57,20.02,8.5,2.19,16.89,3.07,25.8,3.05l107.57-.26c30.86-.07,55.53-26.37,56.93-56.62ZM149.66,417.56l95.46.07c25.25-.62,49.43-8.26,69.85-22.69,34.02-23.75,54.7-62.41,54.69-104.05v-64.05c-13.89,17.65-33.5,27.69-55.54,29.64l-130.68.11c31.45,55.07,17.11,123.65-33.78,160.98ZM154.79,247.33l-14.55-12.68c-3.38-2.03-5.83-4.89-9.85-6.69l-.03,181.08c34.17-19.69,54.34-56.94,52.07-96.3-1.4-24.26-9.19-49.34-27.64-65.42Z"/>
    <g>
      <polygon class="cls-1" points="264.91 209.71 250.06 235.46 235.17 209.79 249.99 195.64 264.91 209.71"/>
      <g>
        <path class="cls-1" d="M333.26,180.77c0,14.06-11.4,25.46-25.46,25.46s-25.46-11.4-25.46-25.46,11.4-25.46,25.46-25.46,25.46,11.4,25.46,25.46ZM315.79,180.73c0-4.41-3.57-7.98-7.98-7.98s-7.98,3.57-7.98,7.98,3.57,7.98,7.98,7.98,7.98-3.57,7.98-7.98Z"/>
        <circle class="cls-2" cx="307.81" cy="180.73" r="7.98"/>
      </g>
      <g>
        <path class="cls-1" d="M217.69,180.78c0,14.06-11.4,25.47-25.47,25.47s-25.47-11.4-25.47-25.47,11.4-25.47,25.47-25.47,25.47,11.4,25.47,25.47ZM200.23,180.73c0-4.41-3.57-7.98-7.98-7.98s-7.98,3.57-7.98,7.98,3.57,7.98,7.98,7.98,7.98-3.57,7.98-7.98Z"/>
        <circle class="cls-2" cx="192.25" cy="180.73" r="7.98"/>
      </g>
    </g>
  </g>
</svg>