<?xml version="1.0" encoding="UTF-8"?>
<svg id="Layer_1" data-name="Layer 1" xmlns="http://www.w3.org/2000/svg" viewBox="0 0 71.37 71.8">
  <defs>
    <style>
      .cls-1 {
        fill: #e5e7d2;
      }

      .cls-2 {
        fill: #323231;
      }
    </style>
  </defs>
  <g>
    <path class="cls-2" d="M64.83,60.57c1.04,1.14-2.78,4.78-4.31,4.45l-12.03-11.27c-13.23,9.74-30.54,7.84-41.01-3.94S-2.48,20.29,8.53,9.01s28.84-12.05,40.72-2c12.2,10.32,14.42,28.06,4.48,41.43l11.09,12.12ZM53.31,29.99c0-12.88-10.44-23.32-23.32-23.32S6.66,17.11,6.66,29.99s10.44,23.32,23.32,23.32,23.32-10.44,23.32-23.32Z"/>
    <path class="cls-1" d="M53.31,29.99c0,12.88-10.44,23.32-23.32,23.32S6.66,42.87,6.66,29.99,17.11,6.67,29.99,6.67s23.32,10.44,23.32,23.32ZM43.31,26.65c0-7.36-5.96-13.32-13.32-13.32s-13.32,5.96-13.32,13.32,5.96,13.32,13.32,13.32,13.32-5.96,13.32-13.32Z"/>
    <path class="cls-1" d="M43.31,26.65c0,7.36-5.96,13.32-13.32,13.32s-13.32-5.96-13.32-13.32,5.96-13.32,13.32-13.32,13.32,5.96,13.32,13.32ZM36.62,26.65c0-3.66-2.97-6.63-6.63-6.63s-6.63,2.97-6.63,6.63,2.97,6.63,6.63,6.63,6.63-2.97,6.63-6.63Z"/>
    <circle class="cls-1" cx="29.98" cy="26.65" r="6.63"/>
    <path class="cls-2" d="M54.46,46.88l-8.03,7.88s0,0,0,0l18.16,17.01c2.3.5,8.07-5,6.5-6.71l-16.63-18.17Z"/>
  </g>
  <ellipse class="cls-1" cx="29.79" cy="27.01" rx="19.57" ry="17.58"/>
</svg>