<?xml version="1.0" encoding="UTF-8"?>
<svg id="Layer_1" data-name="Layer 1" xmlns="http://www.w3.org/2000/svg" viewBox="0 0 501.4 501.4">
  <defs>
    <style>
      .cls-1 {
        fill: #1e69b3;
      }
    </style>
  </defs>
  <path class="cls-1" d="M501.4,250.7c0,138.46-112.24,250.7-250.7,250.7S0,389.16,0,250.7,112.24,0,250.7,0s250.7,112.24,250.7,250.7ZM480.6,250.68c0-126.97-102.93-229.9-229.9-229.9S20.8,123.71,20.8,250.68s102.93,229.9,229.9,229.9,229.9-102.93,229.9-229.9Z"/>
  <path class="cls-1" d="M268.29,454.01l-37.35.07v-107.21s-72.09,10.97-72.09,10.97l-1.58-25.99c-4.16-53.55-18.52-102.27-42.3-150.33-10.36-20.93-21.96-40.47-35.01-60.5,20.25,5.45,38.34,12.78,56.28,21.02,7.45,3.8,14.46,7.38,21.24,12.08,4.35,3.01,8.42,6.02,11.79,10.27l-20.71-5.9c11.94,27.99,20.96,56.47,27.47,86.04,5.28,23.56,8.77,47.15,11.4,71.36l43.03-6.28v-168.44s-31.56,3.77-31.56,3.77c5.1-6.14,9.58-12.11,13.59-18.88,6.84-11.03,12.61-22.23,18.22-33.98l18.53-41.49c.12-.28.69-.09.79.13l17.37,39.28c5.7,12.19,11.66,23.76,18.62,35.25,4.19,6.91,8.51,13.08,14.04,19.6l-31.31-3.67v168.43s42.98,6.3,42.98,6.3c2.56-24.96,6.37-49.34,11.89-73.65,6.51-28.77,15.35-56.5,27.09-83.83l-20.06,5.83c-.44.15-.77-.01-.48-.38,3.01-3.64,6.55-6.35,10.36-9.08,7.13-4.83,14.33-8.93,22.24-12.66,18.09-8.52,36.62-15.72,56.56-21.18-16.98,25.75-31.69,51.59-43.93,79.26-18.75,42.36-30.83,87.54-33.58,133.81l-1.52,23.82-72.02-10.96v107.14Z"/>
</svg>